<?xml version="1.0" encoding="UTF-8" standalone="no"?><!DOCTYPE svg PUBLIC "-//W3C//DTD SVG 1.1//EN" "http://www.w3.org/Graphics/SVG/1.1/DTD/svg11.dtd"><svg width="100%" height="100%" viewBox="0 0 200 79" version="1.1" xmlns="http://www.w3.org/2000/svg" xmlns:xlink="http://www.w3.org/1999/xlink" xml:space="preserve" xmlns:serif="http://www.serif.com/" style="fill-rule:evenodd;clip-rule:evenodd;stroke-linejoin:round;stroke-miterlimit:2;"><path id="orange" d="M-0,78.578l-0,-78.578l23.816,0l-0,12.319l-10.994,-0l0,53.94l10.994,0l-0,12.319l-23.816,0Zm96.123,-48.229l-0,36.097l-13.42,0l-0,-33.633c-0,-0.374 0.004,-0.789 0.014,-1.246c0.009,-0.458 0.017,-0.82 0.023,-1.088c-0.149,0.361 -0.31,0.747 -0.481,1.158c-0.171,0.41 -0.328,0.765 -0.471,1.063l-16.201,34.866l-16.387,-34.753c-0.118,-0.293 -0.254,-0.637 -0.406,-1.032c-0.152,-0.395 -0.303,-0.823 -0.453,-1.283c0.019,0.392 0.033,0.814 0.042,1.265c0.009,0.451 0.014,0.825 0.014,1.124l-0,33.559l-13.42,0l0,-65.326l13.551,-0l15.753,34.772c0.329,0.685 0.622,1.344 0.877,1.979c0.255,0.634 0.498,1.312 0.728,2.034c0.249,-0.715 0.495,-1.408 0.737,-2.076c0.243,-0.669 0.507,-1.315 0.794,-1.937l16.182,-34.772l6.126,-0l6.398,29.229Zm15.342,45.572l-13.868,-65.327l13.868,0l6.756,34.866c0.18,0.834 0.316,1.58 0.406,2.24c0.091,0.659 0.185,1.45 0.285,2.37c0.112,-0.846 0.236,-1.639 0.373,-2.38c0.137,-0.74 0.305,-1.502 0.504,-2.286l8.511,-34.81l11.665,0l8.605,34.754c0.199,0.715 0.36,1.471 0.485,2.268c0.124,0.796 0.236,1.621 0.336,2.473c0.131,-0.802 0.258,-1.568 0.383,-2.296c0.124,-0.728 0.252,-1.412 0.383,-2.053l6.924,-35.146l13.83,0l-14.11,65.327l-12.487,-0l-9.612,-37.367c-0.149,-0.56 -0.277,-1.129 -0.382,-1.708c-0.106,-0.578 -0.215,-1.31 -0.327,-2.193c-0.112,0.933 -0.224,1.667 -0.336,2.202c-0.112,0.536 -0.23,1.077 -0.355,1.624l-9.313,37.442l-12.524,-0Zm64.719,2.657l0,-12.319l10.844,0l0,-53.94l-10.844,-0l0,-12.319l23.816,0l-0,78.578l-23.816,0Z" style="fill:#f90;"/></svg>