<?xml version="1.0" encoding="UTF-8" standalone="no"?>
<!DOCTYPE svg PUBLIC "-//W3C//DTD SVG 1.1//EN" "http://www.w3.org/Graphics/SVG/1.1/DTD/svg11.dtd">
<svg width="100%" height="100%" viewBox="0 0 747 283" version="1.1" xmlns="http://www.w3.org/2000/svg" xmlns:xlink="http://www.w3.org/1999/xlink" xml:space="preserve" xmlns:serif="http://www.serif.com/" style="fill-rule:evenodd;clip-rule:evenodd;stroke-linejoin:round;stroke-miterlimit:2;">
    <g transform="matrix(1,0,0,1,-174.042,-101.444)">
        <path d="M476.336,340L470.963,340L470.963,219.248C470.963,217.908 470.98,216.417 471.014,214.775C471.048,213.133 471.075,211.832 471.096,210.872C470.561,212.167 469.986,213.551 469.371,215.026C468.757,216.501 468.193,217.774 467.68,218.845L409.515,344.021L350.68,219.248C350.255,218.198 349.77,216.963 349.223,215.544C348.676,214.125 348.134,212.59 347.599,210.937C347.665,212.346 347.715,213.859 347.748,215.479C347.781,217.098 347.798,218.444 347.798,219.515L347.798,340L299.618,340L299.618,105.464L348.269,105.464L404.824,230.305C406.007,232.762 407.057,235.129 407.973,237.408C408.889,239.686 409.761,242.121 410.588,244.712C411.482,242.143 412.364,239.658 413.235,237.257C414.105,234.856 415.055,232.538 416.083,230.305L474.18,105.464L517.691,105.464L476.336,340ZM519.145,183.602L519.145,340L491.568,340L519.145,183.602ZM574.584,242.181L552.782,139.48L592.693,139.48L574.584,242.181ZM605.374,153.944L626.829,264.656C627.476,267.648 627.962,270.329 628.287,272.697C628.611,275.065 628.951,277.901 629.307,281.207C629.711,278.168 630.158,275.321 630.649,272.663C631.14,270.005 631.744,267.269 632.459,264.454L663.014,139.48L704.896,139.48L735.788,264.252C736.502,266.821 737.082,269.535 737.529,272.394C737.976,275.254 738.378,278.214 738.736,281.275C739.205,278.394 739.663,275.646 740.11,273.032C740.557,270.418 741.015,267.961 741.484,265.661L766.343,139.48L815.999,139.48L765.338,374.016L720.509,374.016L685.999,239.862C685.463,237.851 685.006,235.808 684.626,233.73C684.247,231.653 683.855,229.028 683.452,225.855C683.051,229.206 682.649,231.842 682.247,233.763C681.845,235.684 681.42,237.627 680.973,239.592L647.536,374.016L602.571,374.016L582.905,281.375L605.374,153.944ZM174.042,383.557L174.042,101.444L259.545,101.444L259.545,145.67L220.077,145.67L220.077,339.33L259.545,339.33L259.545,383.557L174.042,383.557ZM834.93,383.557L834.93,339.33L873.861,339.33L873.861,145.67L834.93,145.67L834.93,101.444L920.433,101.444L920.433,383.557L834.93,383.557Z"/>
    </g>
</svg>
