<?xml version="1.0" encoding="UTF-8" standalone="no"?><!DOCTYPE svg PUBLIC "-//W3C//DTD SVG 1.1//EN" "http://www.w3.org/Graphics/SVG/1.1/DTD/svg11.dtd"><svg width="100%" height="100%" viewBox="0 0 2992 1176" version="1.1" xmlns="http://www.w3.org/2000/svg" xmlns:xlink="http://www.w3.org/1999/xlink" xml:space="preserve" xmlns:serif="http://www.serif.com/" style="fill-rule:evenodd;clip-rule:evenodd;stroke-linejoin:round;stroke-miterlimit:2;"><path id="cream" d="M-0,1175.47l-0,-1175.47l356.264,0l0,184.278l-164.449,0l-0,806.915l164.449,-0l0,184.278l-356.264,0Zm1437.93,-721.469l0,539.983l-200.758,0l0,-503.133c0,-5.584 0.071,-11.797 0.213,-18.639c0.142,-6.842 0.256,-12.263 0.344,-16.262c-2.233,5.395 -4.628,11.165 -7.188,17.309c-2.559,6.144 -4.908,11.448 -7.045,15.912l-242.356,521.566l-245.148,-519.886c-1.767,-4.377 -3.79,-9.521 -6.07,-15.433c-2.279,-5.911 -4.535,-12.31 -6.767,-19.195c0.276,5.867 0.483,12.175 0.621,18.923c0.139,6.747 0.208,12.353 0.208,16.818l-0,502.02l-200.747,0l-0,-977.232l202.71,-0l235.648,520.169c4.93,10.237 9.303,20.102 13.121,29.595c3.817,9.492 7.449,19.637 10.895,30.435c3.723,-10.703 7.399,-21.057 11.027,-31.062c3.628,-10.005 7.584,-19.661 11.866,-28.968l242.073,-520.169l91.64,-0l95.713,437.249Zm229.501,681.715l-207.454,-977.232l207.454,-0l101.072,521.565c2.697,12.47 4.722,23.638 6.075,33.505c1.352,9.867 2.77,21.686 4.253,35.457c1.68,-12.658 3.543,-24.525 5.59,-35.599c2.047,-11.074 4.561,-22.475 7.542,-34.203l127.313,-520.725l174.506,-0l128.719,519.885c2.974,10.703 5.392,22.012 7.253,33.925c1.862,11.914 3.538,24.248 5.028,37.001c1.956,-12.005 3.865,-23.453 5.726,-34.345c1.862,-10.892 3.77,-21.13 5.726,-30.713l103.58,-525.753l206.899,-0l-211.087,977.232l-186.786,0l-143.793,-558.974c-2.232,-8.377 -4.139,-16.893 -5.721,-25.549c-1.581,-8.656 -3.212,-19.594 -4.891,-32.813c-1.673,13.961 -3.347,24.944 -5.023,32.949c-1.676,8.006 -3.445,16.102 -5.306,24.289l-139.321,560.098l-187.354,0Zm968.16,39.754l0,-184.278l162.214,-0l0,-806.915l-162.214,0l0,-184.278l356.265,0l-0,1175.47l-356.265,0Z" style="fill:#fffcf3;"/></svg>