<svg width="30" height="30" viewBox="0 0 30 30" fill="none" xmlns="http://www.w3.org/2000/svg">
<path id="Vector" d="M15 0.742188C6.7125 0.742188 2.18932e-06 7.45469 2.18932e-06 15.7422C-0.00169914 18.8911 0.988222 21.9606 2.82933 24.5152C4.67043 27.0698 7.26922 28.9798 10.257 29.9742C11.007 30.1047 11.2875 29.6547 11.2875 29.2602C11.2875 28.9047 11.268 27.7242 11.268 26.4672C7.5 27.1617 6.525 25.5492 6.225 24.7047C6.0555 24.2727 5.325 22.9422 4.6875 22.5852C4.1625 22.3047 3.4125 21.6102 4.668 21.5922C5.85 21.5727 6.693 22.6797 6.975 23.1297C8.325 25.3977 10.482 24.7602 11.343 24.3672C11.475 23.3922 11.868 22.7367 12.3 22.3617C8.9625 21.9867 5.475 20.6922 5.475 14.9547C5.475 13.3227 6.0555 11.9742 7.0125 10.9227C6.8625 10.5477 6.3375 9.01019 7.1625 6.94769C7.1625 6.94769 8.418 6.55469 11.2875 8.48669C12.5086 8.14778 13.7703 7.9772 15.0375 7.97969C16.3125 7.97969 17.5875 8.14769 18.7875 8.48519C21.6555 6.53519 22.9125 6.94919 22.9125 6.94919C23.7375 9.01169 23.2125 10.5492 23.0625 10.9242C24.018 11.9742 24.6 13.3047 24.6 14.9547C24.6 20.7117 21.0945 21.9867 17.757 22.3617C18.3 22.8297 18.7695 23.7297 18.7695 25.1367C18.7695 27.1422 18.75 28.7547 18.75 29.2617C18.75 29.6547 19.032 30.1227 19.782 29.9727C22.7595 28.9674 25.3469 27.0537 27.1799 24.5009C29.0128 21.9482 29.9991 18.8849 30 15.7422C30 7.45469 23.2875 0.742188 15 0.742188Z" fill="#FFFCF3"/>
</svg>
